<mxfile host="app.diagrams.net" modified="2023-08-29T12:58:08.858Z" agent="Mozilla/5.0 (Macintosh; Intel Mac OS X 10_15_7) AppleWebKit/537.36 (KHTML, like Gecko) Chrome/116.0.0.0 Safari/537.36" etag="EHRvyAcP5-L5UyDPF5K6" version="21.6.9" type="github">
  <diagram id="C5RBs43oDa-KdzZeNtuy" name="Page-1">
    <mxGraphModel dx="4552" dy="4326" grid="1" gridSize="10" guides="1" tooltips="1" connect="1" arrows="1" fold="1" page="1" pageScale="1" pageWidth="827" pageHeight="1169" math="0" shadow="0">
      <root>
        <mxCell id="WIyWlLk6GJQsqaUBKTNV-0" />
        <mxCell id="WIyWlLk6GJQsqaUBKTNV-1" parent="WIyWlLk6GJQsqaUBKTNV-0" />
        <mxCell id="U_TY-0Dwg_rTrHO3cY47-18" value="" style="group;dropTarget=0;pointerEvents=0;" vertex="1" parent="WIyWlLk6GJQsqaUBKTNV-1">
          <mxGeometry x="-3203" y="-3440" width="640" height="45" as="geometry" />
        </mxCell>
        <mxCell id="U_TY-0Dwg_rTrHO3cY47-19" value="Memento Pattern" style="points=[[0.688,0.967,0]];html=1;overflow=block;blockSpacing=1;whiteSpace=wrap;fontSize=19.7;fontColor=#a9afb8;fontStyle=1;align=center;spacingLeft=7;spacingRight=7;spacingTop=2;spacing=3;strokeOpacity=0;fillOpacity=0;rounded=1;absoluteArcSize=1;arcSize=12;fillColor=#ffffff;strokeWidth=1.5;lucidId=zV0p94uQ8jZY;" vertex="1" parent="U_TY-0Dwg_rTrHO3cY47-18">
          <mxGeometry width="640" height="31" as="geometry" />
        </mxCell>
        <UserObject label="%creatorName%  |  %date{mmmm d, yyyy}%" placeholders="1" id="U_TY-0Dwg_rTrHO3cY47-20">
          <mxCell style="html=1;overflow=block;blockSpacing=1;whiteSpace=wrap;fontSize=11.5;fontColor=#a9afb8;align=center;spacingLeft=7;spacingRight=7;spacingTop=2;spacing=3;strokeOpacity=0;fillOpacity=0;rounded=1;absoluteArcSize=1;arcSize=12;fillColor=#ffffff;strokeWidth=1.5;lucidId=zV0p6GQysQ9Z;" vertex="1" parent="U_TY-0Dwg_rTrHO3cY47-18">
            <mxGeometry y="31" width="640" height="14" as="geometry" />
          </mxCell>
        </UserObject>
        <mxCell id="U_TY-0Dwg_rTrHO3cY47-21" value="" style="html=1;jettySize=18;whiteSpace=wrap;fontSize=13;fontFamily=Helvetica;strokeColor=#a9afb8;strokeOpacity=100;strokeWidth=1.5;rounded=0;startArrow=none;endArrow=none;entryX=0.688;entryY=0.967;entryPerimeter=0;lucidId=zV0plLxj8k6u;" edge="1" parent="U_TY-0Dwg_rTrHO3cY47-18" target="U_TY-0Dwg_rTrHO3cY47-19">
          <mxGeometry width="100" height="100" relative="1" as="geometry">
            <Array as="points" />
            <mxPoint x="206" y="30" as="sourcePoint" />
          </mxGeometry>
        </mxCell>
        <mxCell id="U_TY-0Dwg_rTrHO3cY47-22" value="Editor / Originator" style="html=1;overflow=block;blockSpacing=1;swimlane;childLayout=stackLayout;horizontal=1;horizontalStack=0;resizeParent=1;resizeParentMax=0;resizeLast=0;collapsible=0;fontStyle=0;marginBottom=0;swimlaneFillColor=#ffffff;startSize=25;whiteSpace=wrap;fontSize=16.7;fontColor=#3a414a;align=left;spacing=0;strokeColor=#3a414a;strokeOpacity=100;rounded=1;absoluteArcSize=1;arcSize=9;strokeWidth=0.8;" vertex="1" parent="WIyWlLk6GJQsqaUBKTNV-1">
          <mxGeometry x="-3260" y="-3339" width="270" height="227.25" as="geometry" />
        </mxCell>
        <mxCell id="U_TY-0Dwg_rTrHO3cY47-23" value="- content : String&#xa;" style="part=1;html=1;resizeHeight=0;strokeColor=none;fillColor=none;align=left;verticalAlign=middle;spacingLeft=4;spacingRight=4;overflow=hidden;rotatable=0;points=[[0,0.5],[1,0.5]];portConstraint=eastwest;swimlaneFillColor=#ffffff;strokeOpacity=100;whiteSpace=wrap;fontSize=16.7;fontColor=#3a414a;" vertex="1" parent="U_TY-0Dwg_rTrHO3cY47-22">
          <mxGeometry y="25" width="270" height="92" as="geometry" />
        </mxCell>
        <mxCell id="U_TY-0Dwg_rTrHO3cY47-24" value="" style="line;strokeWidth=1;fillColor=none;align=left;verticalAlign=middle;spacingTop=-1;spacingLeft=3;spacingRight=3;rotatable=0;labelPosition=right;points=[];portConstraint=eastwest;" vertex="1" parent="U_TY-0Dwg_rTrHO3cY47-22">
          <mxGeometry y="117" width="270" height="8" as="geometry" />
        </mxCell>
        <mxCell id="U_TY-0Dwg_rTrHO3cY47-25" value="+ createState(): EditorState&#xa;+ restore()&#xa;+ getContent() : String&#xa;+setContent()" style="part=1;html=1;resizeHeight=0;strokeColor=none;fillColor=none;align=left;verticalAlign=middle;spacingLeft=4;spacingRight=4;overflow=hidden;rotatable=0;points=[[0,0.5],[1,0.5]];portConstraint=eastwest;swimlaneFillColor=#ffffff;strokeOpacity=100;whiteSpace=wrap;fontSize=16.7;fontColor=#3a414a;" vertex="1" parent="U_TY-0Dwg_rTrHO3cY47-22">
          <mxGeometry y="125" width="270" height="102.25" as="geometry" />
        </mxCell>
        <mxCell id="U_TY-0Dwg_rTrHO3cY47-26" value="EditorState Class / Memonto" style="html=1;overflow=block;blockSpacing=1;swimlane;childLayout=stackLayout;horizontal=1;horizontalStack=0;resizeParent=1;resizeParentMax=0;resizeLast=0;collapsible=0;fontStyle=0;marginBottom=0;swimlaneFillColor=#ffffff;startSize=25;whiteSpace=wrap;fontSize=16.7;fontColor=#3a414a;align=left;spacing=0;strokeColor=#3a414a;strokeOpacity=100;rounded=1;absoluteArcSize=1;arcSize=9;strokeWidth=0.8;" vertex="1" parent="WIyWlLk6GJQsqaUBKTNV-1">
          <mxGeometry x="-2780" y="-3309" width="270" height="168.25" as="geometry" />
        </mxCell>
        <mxCell id="U_TY-0Dwg_rTrHO3cY47-27" value="- content : String&#xa;" style="part=1;html=1;resizeHeight=0;strokeColor=none;fillColor=none;align=left;verticalAlign=middle;spacingLeft=4;spacingRight=4;overflow=hidden;rotatable=0;points=[[0,0.5],[1,0.5]];portConstraint=eastwest;swimlaneFillColor=#ffffff;strokeOpacity=100;whiteSpace=wrap;fontSize=16.7;fontColor=#3a414a;" vertex="1" parent="U_TY-0Dwg_rTrHO3cY47-26">
          <mxGeometry y="25" width="270" height="62" as="geometry" />
        </mxCell>
        <mxCell id="U_TY-0Dwg_rTrHO3cY47-28" value="" style="line;strokeWidth=1;fillColor=none;align=left;verticalAlign=middle;spacingTop=-1;spacingLeft=3;spacingRight=3;rotatable=0;labelPosition=right;points=[];portConstraint=eastwest;" vertex="1" parent="U_TY-0Dwg_rTrHO3cY47-26">
          <mxGeometry y="87" width="270" height="8" as="geometry" />
        </mxCell>
        <mxCell id="U_TY-0Dwg_rTrHO3cY47-29" value="+ getContent (): String" style="part=1;html=1;resizeHeight=0;strokeColor=none;fillColor=none;align=left;verticalAlign=middle;spacingLeft=4;spacingRight=4;overflow=hidden;rotatable=0;points=[[0,0.5],[1,0.5]];portConstraint=eastwest;swimlaneFillColor=#ffffff;strokeOpacity=100;whiteSpace=wrap;fontSize=16.7;fontColor=#3a414a;" vertex="1" parent="U_TY-0Dwg_rTrHO3cY47-26">
          <mxGeometry y="95" width="270" height="73.25" as="geometry" />
        </mxCell>
        <mxCell id="U_TY-0Dwg_rTrHO3cY47-30" value="History / Caretaker" style="html=1;overflow=block;blockSpacing=1;swimlane;childLayout=stackLayout;horizontal=1;horizontalStack=0;resizeParent=1;resizeParentMax=0;resizeLast=0;collapsible=0;fontStyle=0;marginBottom=0;swimlaneFillColor=#ffffff;startSize=25;whiteSpace=wrap;fontSize=16.7;fontColor=#3a414a;align=left;spacing=0;strokeColor=#3a414a;strokeOpacity=100;rounded=1;absoluteArcSize=1;arcSize=9;strokeWidth=0.8;" vertex="1" parent="WIyWlLk6GJQsqaUBKTNV-1">
          <mxGeometry x="-2780" y="-3039" width="270" height="207.25" as="geometry" />
        </mxCell>
        <mxCell id="U_TY-0Dwg_rTrHO3cY47-31" value="- states : List&#xa;" style="part=1;html=1;resizeHeight=0;strokeColor=none;fillColor=none;align=left;verticalAlign=middle;spacingLeft=4;spacingRight=4;overflow=hidden;rotatable=0;points=[[0,0.5],[1,0.5]];portConstraint=eastwest;swimlaneFillColor=#ffffff;strokeOpacity=100;whiteSpace=wrap;fontSize=16.7;fontColor=#3a414a;" vertex="1" parent="U_TY-0Dwg_rTrHO3cY47-30">
          <mxGeometry y="25" width="270" height="82" as="geometry" />
        </mxCell>
        <mxCell id="U_TY-0Dwg_rTrHO3cY47-32" value="" style="line;strokeWidth=1;fillColor=none;align=left;verticalAlign=middle;spacingTop=-1;spacingLeft=3;spacingRight=3;rotatable=0;labelPosition=right;points=[];portConstraint=eastwest;" vertex="1" parent="U_TY-0Dwg_rTrHO3cY47-30">
          <mxGeometry y="107" width="270" height="8" as="geometry" />
        </mxCell>
        <mxCell id="U_TY-0Dwg_rTrHO3cY47-33" value="+ push()&#xa;+ pop (): EditorState&#xa;" style="part=1;html=1;resizeHeight=0;strokeColor=none;fillColor=none;align=left;verticalAlign=middle;spacingLeft=4;spacingRight=4;overflow=hidden;rotatable=0;points=[[0,0.5],[1,0.5]];portConstraint=eastwest;swimlaneFillColor=#ffffff;strokeOpacity=100;whiteSpace=wrap;fontSize=16.7;fontColor=#3a414a;" vertex="1" parent="U_TY-0Dwg_rTrHO3cY47-30">
          <mxGeometry y="115" width="270" height="92.25" as="geometry" />
        </mxCell>
        <mxCell id="U_TY-0Dwg_rTrHO3cY47-34" value="" style="html=1;jettySize=18;whiteSpace=wrap;fontSize=13;strokeColor=#3a414a;strokeOpacity=100;strokeWidth=4.5;rounded=1;arcSize=12;edgeStyle=orthogonalEdgeStyle;startArrow=diamond;startFill=1;startSize=16;exitX=0.5;exitY=-0.002;exitPerimeter=0;entryX=0.5;entryY=1.003;entryPerimeter=0;lucidId=zk1p6L_fdBU9;" edge="1" parent="WIyWlLk6GJQsqaUBKTNV-1" source="U_TY-0Dwg_rTrHO3cY47-30" target="U_TY-0Dwg_rTrHO3cY47-26">
          <mxGeometry width="100" height="100" relative="1" as="geometry">
            <Array as="points" />
          </mxGeometry>
        </mxCell>
        <mxCell id="U_TY-0Dwg_rTrHO3cY47-35" value="This means the EditorState class has a composition relationship with the History class - the History class contain a list of EditorState elements" style="html=1;overflow=block;blockSpacing=1;whiteSpace=wrap;fontSize=16.7;fontColor=#3a414a;spacing=3.8;strokeOpacity=0;fillOpacity=0;rounded=1;absoluteArcSize=1;arcSize=9;fillColor=#ffffff;strokeWidth=3.8;lucidId=Lo1pZtVWviOo;" vertex="1" parent="WIyWlLk6GJQsqaUBKTNV-1">
          <mxGeometry x="-2495" y="-3187" width="180" height="168" as="geometry" />
        </mxCell>
        <mxCell id="U_TY-0Dwg_rTrHO3cY47-36" value="" style="html=1;overflow=block;blockSpacing=1;whiteSpace=wrap;rounded=1;absoluteArcSize=1;arcSize=24;container=1;pointerEvents=0;collapsible=0;recursiveResize=0;fontSize=13;spacing=3.6;strokeOpacity=0;fillOpacity=100;shadow=1;fillColor=#ffffff;strokeWidth=1.5;lucidId=SY2pZ8UVc_J9;" vertex="1" parent="WIyWlLk6GJQsqaUBKTNV-1">
          <mxGeometry x="-1007" y="-2671" width="381" height="773" as="geometry" />
        </mxCell>
        <mxCell id="U_TY-0Dwg_rTrHO3cY47-37" value="" style="html=1;overflow=block;blockSpacing=1;whiteSpace=wrap;rounded=1;absoluteArcSize=1;arcSize=24;container=1;pointerEvents=0;collapsible=0;recursiveResize=0;fontSize=13;spacing=3.6;strokeOpacity=0;fillOpacity=100;shadow=1;fillColor=#ffffff;strokeWidth=1.5;lucidId=sX0pJFGfKUSU;" vertex="1" parent="WIyWlLk6GJQsqaUBKTNV-1">
          <mxGeometry x="1924.5" y="-3420" width="381" height="743" as="geometry" />
        </mxCell>
        <mxCell id="U_TY-0Dwg_rTrHO3cY47-38" value="&lt;div style=&quot;display: flex; justify-content: center; text-align: center; align-items: baseline; font-size: 0; line-height: 1.25;margin-left: 8.4px;margin-right: 8.4px;margin-top: 2.4px;margin-top: -2px;&quot;&gt;&lt;span&gt;&lt;span style=&quot;font-size:16.7px;color:#666666;font-weight: bold;&quot;&gt;UML Class Diagram Tutorials&#xa;&lt;/span&gt;&lt;/span&gt;&lt;/div&gt;&lt;div style=&quot;display: flex; justify-content: center; text-align: center; align-items: baseline; font-size: 0; line-height: 1.25;margin-top: -2px;&quot;&gt;&lt;span&gt;&lt;span style=&quot;font-size:13px;color:#666666;&quot;&gt;&lt;span style=&quot;font-size:13.3px;color:#666666;font-style: italic;&quot;&gt;(Hold Shift + ⌘ or Ctrl, then click)&lt;/span&gt;&lt;/span&gt;&lt;/span&gt;&lt;/div&gt;" style="html=1;overflow=block;blockSpacing=1;whiteSpace=wrap;fontSize=13;spacing=3.6;strokeOpacity=0;fillOpacity=0;fillColor=#ffffff;strokeWidth=0.8;lucidId=sX0pPrZr3WfM;" vertex="1" parent="WIyWlLk6GJQsqaUBKTNV-1">
          <mxGeometry x="-1007" y="-3040" width="381" height="24" as="geometry" />
        </mxCell>
        <UserObject label="Read about UML class diagrams" link="https://www.lucidchart.com/pages/uml-class-diagram" id="U_TY-0Dwg_rTrHO3cY47-39">
          <mxCell style="html=1;overflow=block;blockSpacing=1;whiteSpace=wrap;rounded=1;arcSize=25;fontSize=16.7;fontColor=#ffffff;spacingLeft=8.4;spacingRight=8.4;spacingTop=2.4;spacing=3.6;strokeOpacity=0;fillOpacity=100;shadow=1;fillColor=#77818c;strokeWidth=1.5;lucidId=sX0pizP.D8Yw;" vertex="1" parent="WIyWlLk6GJQsqaUBKTNV-1">
            <mxGeometry x="-979" y="-2908" width="324" height="28" as="geometry" />
          </mxCell>
        </UserObject>
        <UserObject label="Watch a UML class diagram tutorial" link="https://www.youtube.com/watch?v=UI6lqHOVHic" id="U_TY-0Dwg_rTrHO3cY47-40">
          <mxCell style="html=1;overflow=block;blockSpacing=1;whiteSpace=wrap;rounded=1;arcSize=25;fontSize=16.7;fontColor=#ffffff;spacingLeft=8.4;spacingRight=8.4;spacingTop=2.4;spacing=3.6;strokeOpacity=0;fillOpacity=100;shadow=1;fillColor=#77818c;strokeWidth=1.5;lucidId=sX0pPZHDbc-L;" vertex="1" parent="WIyWlLk6GJQsqaUBKTNV-1">
            <mxGeometry x="-979" y="-2984" width="324" height="28" as="geometry" />
          </mxCell>
        </UserObject>
        <UserObject label="Watch Lucidchart basic tutorials" link="https://www.youtube.com/playlist?list=PLUoebdZqEHTxx3fS_jyD56QMd4trXZE3D" id="U_TY-0Dwg_rTrHO3cY47-41">
          <mxCell style="html=1;overflow=block;blockSpacing=1;whiteSpace=wrap;rounded=1;arcSize=25;fontSize=16.7;fontColor=#ffffff;spacingLeft=8.4;spacingRight=8.4;spacingTop=2.4;spacing=3.6;strokeOpacity=0;fillOpacity=100;shadow=1;fillColor=#77818c;strokeWidth=1.5;lucidId=sX0p_.JMDArn;" vertex="1" parent="WIyWlLk6GJQsqaUBKTNV-1">
            <mxGeometry x="-979" y="-2831" width="324" height="28" as="geometry" />
          </mxCell>
        </UserObject>
        <mxCell id="U_TY-0Dwg_rTrHO3cY47-42" value="&lt;div style=&quot;display: flex; justify-content: flex-start; text-align: left; align-items: baseline; font-size: 0; line-height: 1.25;margin-left: 8.4px;margin-right: 8.4px;margin-top: 2.4px;margin-top: -2px;&quot;&gt;&lt;span&gt;&lt;span style=&quot;font-size:16.7px;color:#666666;font-style: italic;&quot;&gt;UML class diagrams map out the structure of a particular system by modeling its classes, attributes, operations, and relationships between objects. &#xa;&lt;/span&gt;&lt;/span&gt;&lt;/div&gt;&lt;div style=&quot;display: flex; justify-content: center; text-align: center; align-items: baseline; font-size: 0; line-height: 1.25;margin-top: -2px;&quot;&gt;&lt;span&gt;&lt;span style=&quot;font-size:16.7px;color:#666666;font-style: italic;&quot;&gt;&#xa;&lt;/span&gt;&lt;/span&gt;&lt;/div&gt;&lt;div style=&quot;display: flex; justify-content: center; text-align: center; align-items: baseline; font-size: 0; line-height: 1.25;margin-top: -2px;&quot;&gt;&lt;span&gt;&lt;span style=&quot;font-size:16.7px;color:#666666;font-style: italic;&quot;&gt;To customize this template:&#xa;&lt;/span&gt;&lt;/span&gt;&lt;/div&gt;&lt;ul style=&quot;margin: 0px; padding-left: 10px;list-style-position: inside; list-style-type:disc&quot;&gt;&lt;li style=&quot;text-align:left;color:#666666;font-size:16.7px;&quot;&gt;&lt;span style=&quot;margin-left: 3.7px;margin-right: 8.4px;margin-top: 2.4px;margin-top: -2px;&quot;&gt;&lt;span style=&quot;font-size:16.7px;color:#666666;font-style: italic;&quot;&gt;Click on any shape and type the information you would like to include.&lt;/span&gt;&lt;/span&gt;&lt;/li&gt;&lt;li style=&quot;text-align:left;color:#666666;font-size:16.7px;&quot;&gt;&lt;span style=&quot;margin-left: 3.7px;margin-right: 8.4px;margin-top: 2.4px;margin-top: -2px;&quot;&gt;&lt;span style=&quot;font-size:16.7px;color:#666666;font-style: italic;&quot;&gt;Add and arrange class shapes as needed.&lt;/span&gt;&lt;/span&gt;&lt;/li&gt;&lt;li style=&quot;text-align:left;color:#666666;font-size:16.7px;&quot;&gt;&lt;span style=&quot;margin-left: 3.7px;margin-right: 8.4px;margin-top: 2.4px;margin-top: -2px;&quot;&gt;&lt;span style=&quot;font-size:16.7px;color:#666666;font-style: italic;&quot;&gt;Update cardinality.&lt;/span&gt;&lt;/span&gt;&lt;/li&gt;&lt;li style=&quot;text-align:left;color:#666666;font-size:16.7px;&quot;&gt;&lt;span style=&quot;margin-left: 3.7px;margin-right: 8.4px;margin-top: 2.4px;margin-top: -2px;&quot;&gt;&lt;span style=&quot;font-size:16.7px;color:#666666;font-style: italic;&quot;&gt;Click on a line and navigate to the properties bar to adjust the endpoints.&lt;/span&gt;&lt;/span&gt;&lt;/li&gt;&lt;li style=&quot;text-align:left;color:#666666;font-size:16.7px;&quot;&gt;&lt;span style=&quot;margin-left: 3.7px;margin-right: 8.4px;margin-top: 2.4px;margin-top: -2px;&quot;&gt;&lt;span style=&quot;font-size:16.7px;color:#666666;font-style: italic;&quot;&gt;Click on a line and hover over the gear icon to add multiplicities.&lt;/span&gt;&lt;/span&gt;&lt;/li&gt;&lt;li style=&quot;text-align:left;color:#666666;font-size:16.7px;&quot;&gt;&lt;span style=&quot;margin-left: 3.7px;margin-right: 8.4px;margin-top: 2.4px;margin-top: -2px;&quot;&gt;&lt;span style=&quot;font-size:16.7px;color:#666666;font-style: italic;&quot;&gt;Add additional lines by hovering over a shape and clicking the red dot&lt;/span&gt;&lt;/span&gt;&lt;/li&gt;&lt;/ul&gt;" style="html=1;overflow=block;blockSpacing=1;whiteSpace=wrap;fontSize=13;spacing=0;verticalAlign=top;strokeOpacity=100;rounded=1;absoluteArcSize=1;arcSize=7.5;strokeWidth=1.5;fillColor=none;strokeColor=none;lucidId=sX0pO99i9qGL;" vertex="1" parent="WIyWlLk6GJQsqaUBKTNV-1">
          <mxGeometry x="-979" y="-3460" width="324" height="390" as="geometry" />
        </mxCell>
        <mxCell id="U_TY-0Dwg_rTrHO3cY47-43" value="State Pattern" style="html=1;overflow=block;blockSpacing=1;whiteSpace=wrap;fontSize=19.7;fontColor=#a9afb8;fontStyle=1;align=center;spacingLeft=7;spacingRight=7;spacingTop=2;spacing=3;strokeOpacity=0;fillOpacity=0;rounded=1;absoluteArcSize=1;arcSize=12;fillColor=#ffffff;strokeWidth=1.5;lucidId=sX0p97V16W0Q;" vertex="1" parent="WIyWlLk6GJQsqaUBKTNV-1">
          <mxGeometry x="-2047" y="-3470" width="640" height="1" as="geometry" />
        </mxCell>
        <UserObject label="%creatorName%  |  %date{mmmm d, yyyy}%" placeholders="1" id="U_TY-0Dwg_rTrHO3cY47-44">
          <mxCell style="html=1;overflow=block;blockSpacing=1;whiteSpace=wrap;fontSize=11.5;fontColor=#a9afb8;align=center;spacingLeft=7;spacingRight=7;spacingTop=2;spacing=3;strokeOpacity=0;fillOpacity=0;rounded=1;absoluteArcSize=1;arcSize=12;fillColor=#ffffff;strokeWidth=1.5;lucidId=sX0pR78Se-6M;" vertex="1" parent="WIyWlLk6GJQsqaUBKTNV-1">
            <mxGeometry x="-2047" y="-3439" width="640" as="geometry" />
          </mxCell>
        </UserObject>
        <mxCell id="U_TY-0Dwg_rTrHO3cY47-45" value="Canvas Class / Context" style="html=1;overflow=block;blockSpacing=1;swimlane;childLayout=stackLayout;horizontal=1;horizontalStack=0;resizeParent=1;resizeParentMax=0;resizeLast=0;collapsible=0;fontStyle=0;marginBottom=0;swimlaneFillColor=#ffffff;startSize=25;whiteSpace=wrap;fontSize=16.7;fontColor=#3a414a;align=left;spacing=0;strokeColor=#3a414a;strokeOpacity=100;rounded=1;absoluteArcSize=1;arcSize=9;strokeWidth=0.8;" vertex="1" parent="WIyWlLk6GJQsqaUBKTNV-1">
          <mxGeometry x="-2100" y="-3376" width="270" height="219.25" as="geometry" />
        </mxCell>
        <mxCell id="U_TY-0Dwg_rTrHO3cY47-46" value="- currentTool : ToolType" style="part=1;html=1;resizeHeight=0;strokeColor=none;fillColor=none;align=left;verticalAlign=middle;spacingLeft=4;spacingRight=4;overflow=hidden;rotatable=0;points=[[0,0.5],[1,0.5]];portConstraint=eastwest;swimlaneFillColor=#ffffff;strokeOpacity=100;whiteSpace=wrap;fontSize=16.7;fontColor=#3a414a;" vertex="1" parent="U_TY-0Dwg_rTrHO3cY47-45">
          <mxGeometry y="25" width="270" height="92" as="geometry" />
        </mxCell>
        <mxCell id="U_TY-0Dwg_rTrHO3cY47-47" value="" style="line;strokeWidth=1;fillColor=none;align=left;verticalAlign=middle;spacingTop=-1;spacingLeft=3;spacingRight=3;rotatable=0;labelPosition=right;points=[];portConstraint=eastwest;" vertex="1" parent="U_TY-0Dwg_rTrHO3cY47-45">
          <mxGeometry y="117" width="270" as="geometry" />
        </mxCell>
        <mxCell id="U_TY-0Dwg_rTrHO3cY47-48" value="( request())&#xa;+ mouseDown()&#xa;+ mouseUp()&#xa;+ getCurrentTool() : ToolType&#xa;+ setCurrentTool()" style="part=1;html=1;resizeHeight=0;strokeColor=none;fillColor=none;align=left;verticalAlign=middle;spacingLeft=4;spacingRight=4;overflow=hidden;rotatable=0;points=[[0,0.5],[1,0.5]];portConstraint=eastwest;swimlaneFillColor=#ffffff;strokeOpacity=100;whiteSpace=wrap;fontSize=16.7;fontColor=#3a414a;" vertex="1" parent="U_TY-0Dwg_rTrHO3cY47-45">
          <mxGeometry y="117" width="270" height="102.25" as="geometry" />
        </mxCell>
        <mxCell id="U_TY-0Dwg_rTrHO3cY47-49" value="Tool (interface class) /  State" style="html=1;overflow=block;blockSpacing=1;swimlane;childLayout=stackLayout;horizontal=1;horizontalStack=0;resizeParent=1;resizeParentMax=0;resizeLast=0;collapsible=0;fontStyle=0;marginBottom=0;swimlaneFillColor=#ffffff;startSize=25;whiteSpace=wrap;fontSize=16.7;fontColor=#3a414a;align=left;spacing=0;strokeColor=#3a414a;strokeOpacity=100;rounded=1;absoluteArcSize=1;arcSize=9;strokeWidth=0.8;" vertex="1" parent="WIyWlLk6GJQsqaUBKTNV-1">
          <mxGeometry x="-1695" y="-3395" width="270" height="160.25" as="geometry" />
        </mxCell>
        <mxCell id="U_TY-0Dwg_rTrHO3cY47-50" value="" style="part=1;html=1;resizeHeight=0;strokeColor=none;fillColor=none;align=left;verticalAlign=middle;spacingLeft=4;spacingRight=4;overflow=hidden;rotatable=0;points=[[0,0.5],[1,0.5]];portConstraint=eastwest;swimlaneFillColor=#ffffff;strokeOpacity=100;whiteSpace=wrap;fontSize=13;" vertex="1" parent="U_TY-0Dwg_rTrHO3cY47-49">
          <mxGeometry y="25" width="270" height="62" as="geometry" />
        </mxCell>
        <mxCell id="U_TY-0Dwg_rTrHO3cY47-51" value="" style="line;strokeWidth=1;fillColor=none;align=left;verticalAlign=middle;spacingTop=-1;spacingLeft=3;spacingRight=3;rotatable=0;labelPosition=right;points=[];portConstraint=eastwest;" vertex="1" parent="U_TY-0Dwg_rTrHO3cY47-49">
          <mxGeometry y="87" width="270" as="geometry" />
        </mxCell>
        <mxCell id="U_TY-0Dwg_rTrHO3cY47-52" value="(handle())&#xa;+ mouseDown()&#xa;+mouseUp()" style="part=1;html=1;resizeHeight=0;strokeColor=none;fillColor=none;align=left;verticalAlign=middle;spacingLeft=4;spacingRight=4;overflow=hidden;rotatable=0;points=[[0,0.5],[1,0.5]];portConstraint=eastwest;swimlaneFillColor=#ffffff;strokeOpacity=100;whiteSpace=wrap;fontSize=16.7;fontColor=#3a414a;" vertex="1" parent="U_TY-0Dwg_rTrHO3cY47-49">
          <mxGeometry y="87" width="270" height="73.25" as="geometry" />
        </mxCell>
        <mxCell id="U_TY-0Dwg_rTrHO3cY47-53" value="Brush Class / ConcreteStateB" style="html=1;overflow=block;blockSpacing=1;swimlane;childLayout=stackLayout;horizontal=1;horizontalStack=0;resizeParent=1;resizeParentMax=0;resizeLast=0;collapsible=0;fontStyle=0;marginBottom=0;swimlaneFillColor=#ffffff;startSize=25;whiteSpace=wrap;fontSize=16.7;fontColor=#3a414a;align=left;spacing=0;strokeColor=#3a414a;strokeOpacity=100;rounded=1;absoluteArcSize=1;arcSize=9;strokeWidth=0.8;" vertex="1" parent="WIyWlLk6GJQsqaUBKTNV-1">
          <mxGeometry x="-1500" y="-3087" width="270" height="78" as="geometry" />
        </mxCell>
        <mxCell id="U_TY-0Dwg_rTrHO3cY47-54" value="" style="part=1;html=1;resizeHeight=0;strokeColor=none;fillColor=none;align=left;verticalAlign=middle;spacingLeft=4;spacingRight=4;overflow=hidden;rotatable=0;points=[[0,0.5],[1,0.5]];portConstraint=eastwest;swimlaneFillColor=#ffffff;strokeOpacity=100;whiteSpace=wrap;fontSize=13;" vertex="1" parent="U_TY-0Dwg_rTrHO3cY47-53">
          <mxGeometry y="25" width="270" height="36" as="geometry" />
        </mxCell>
        <mxCell id="U_TY-0Dwg_rTrHO3cY47-55" value="" style="line;strokeWidth=1;fillColor=none;align=left;verticalAlign=middle;spacingTop=-1;spacingLeft=3;spacingRight=3;rotatable=0;labelPosition=right;points=[];portConstraint=eastwest;" vertex="1" parent="U_TY-0Dwg_rTrHO3cY47-53">
          <mxGeometry y="61" width="270" as="geometry" />
        </mxCell>
        <mxCell id="U_TY-0Dwg_rTrHO3cY47-56" value="(handle())&#xa;+ mouseDown()&#xa;+mouseUp()" style="part=1;html=1;resizeHeight=0;strokeColor=none;fillColor=none;align=left;verticalAlign=middle;spacingLeft=4;spacingRight=4;overflow=hidden;rotatable=0;points=[[0,0.5],[1,0.5]];portConstraint=eastwest;swimlaneFillColor=#ffffff;strokeOpacity=100;whiteSpace=wrap;fontSize=16.7;fontColor=#3a414a;" vertex="1" parent="U_TY-0Dwg_rTrHO3cY47-53">
          <mxGeometry y="61" width="270" height="17" as="geometry" />
        </mxCell>
        <mxCell id="U_TY-0Dwg_rTrHO3cY47-57" value="Selection class /  ConcreteStateA" style="html=1;overflow=block;blockSpacing=1;swimlane;childLayout=stackLayout;horizontal=1;horizontalStack=0;resizeParent=1;resizeParentMax=0;resizeLast=0;collapsible=0;fontStyle=0;marginBottom=0;swimlaneFillColor=#ffffff;startSize=25;whiteSpace=wrap;fontSize=16.7;fontColor=#3a414a;align=left;spacing=0;strokeColor=#3a414a;strokeOpacity=100;rounded=1;absoluteArcSize=1;arcSize=9;strokeWidth=0.8;" vertex="1" parent="WIyWlLk6GJQsqaUBKTNV-1">
          <mxGeometry x="-1845" y="-3087" width="270" height="78" as="geometry" />
        </mxCell>
        <mxCell id="U_TY-0Dwg_rTrHO3cY47-58" value="" style="part=1;html=1;resizeHeight=0;strokeColor=none;fillColor=none;align=left;verticalAlign=middle;spacingLeft=4;spacingRight=4;overflow=hidden;rotatable=0;points=[[0,0.5],[1,0.5]];portConstraint=eastwest;swimlaneFillColor=#ffffff;strokeOpacity=100;whiteSpace=wrap;fontSize=13;" vertex="1" parent="U_TY-0Dwg_rTrHO3cY47-57">
          <mxGeometry y="25" width="270" height="36" as="geometry" />
        </mxCell>
        <mxCell id="U_TY-0Dwg_rTrHO3cY47-59" value="" style="line;strokeWidth=1;fillColor=none;align=left;verticalAlign=middle;spacingTop=-1;spacingLeft=3;spacingRight=3;rotatable=0;labelPosition=right;points=[];portConstraint=eastwest;" vertex="1" parent="U_TY-0Dwg_rTrHO3cY47-57">
          <mxGeometry y="61" width="270" as="geometry" />
        </mxCell>
        <mxCell id="U_TY-0Dwg_rTrHO3cY47-60" value="(handle())&#xa;+ mouseDown()&#xa;+mouseUp()" style="part=1;html=1;resizeHeight=0;strokeColor=none;fillColor=none;align=left;verticalAlign=middle;spacingLeft=4;spacingRight=4;overflow=hidden;rotatable=0;points=[[0,0.5],[1,0.5]];portConstraint=eastwest;swimlaneFillColor=#ffffff;strokeOpacity=100;whiteSpace=wrap;fontSize=16.7;fontColor=#3a414a;" vertex="1" parent="U_TY-0Dwg_rTrHO3cY47-57">
          <mxGeometry y="61" width="270" height="17" as="geometry" />
        </mxCell>
        <mxCell id="U_TY-0Dwg_rTrHO3cY47-61" value="" style="html=1;jettySize=18;whiteSpace=wrap;overflow=block;blockSpacing=1;fontSize=13;strokeColor=#3a414a;strokeOpacity=100;strokeWidth=3.8;rounded=1;arcSize=12;edgeStyle=orthogonalEdgeStyle;startArrow=none;endArrow=none;exitX=0.5;exitY=-0.003;exitPerimeter=0;entryX=0.5;entryY=-0.003;entryPerimeter=0;lucidId=dD1pzq4XvZ.y;" edge="1" parent="WIyWlLk6GJQsqaUBKTNV-1" source="U_TY-0Dwg_rTrHO3cY47-57" target="U_TY-0Dwg_rTrHO3cY47-53">
          <mxGeometry width="100" height="100" relative="1" as="geometry">
            <Array as="points">
              <mxPoint x="-1710" y="-3169" />
              <mxPoint x="-1365" y="-3169" />
            </Array>
          </mxGeometry>
        </mxCell>
        <mxCell id="U_TY-0Dwg_rTrHO3cY47-62" value="" style="html=1;jettySize=18;whiteSpace=wrap;overflow=block;blockSpacing=1;fontSize=13;strokeColor=#3a414a;strokeOpacity=100;strokeWidth=3.8;rounded=1;arcSize=12;edgeStyle=orthogonalEdgeStyle;endArrow=none;exitX=0.536;exitY=1.002;exitPerimeter=0;lucidId=QD1pjZaXCF8D;" edge="1" parent="WIyWlLk6GJQsqaUBKTNV-1" source="U_TY-0Dwg_rTrHO3cY47-49">
          <mxGeometry width="100" height="100" relative="1" as="geometry">
            <mxPoint x="-1550" y="-3169" as="targetPoint" />
          </mxGeometry>
        </mxCell>
        <mxCell id="U_TY-0Dwg_rTrHO3cY47-63" value="To implement the state pattern, we use the polymophism feature of OOP" style="html=1;overflow=block;blockSpacing=1;whiteSpace=wrap;fontSize=16.7;fontColor=#3a414a;spacing=3.8;strokeOpacity=0;fillOpacity=0;rounded=1;absoluteArcSize=1;arcSize=9;fillColor=#ffffff;strokeWidth=3.8;lucidId=RH1p5E7Tl5A2;" vertex="1" parent="WIyWlLk6GJQsqaUBKTNV-1">
          <mxGeometry x="-1335" y="-3423" width="180" height="58" as="geometry" />
        </mxCell>
        <mxCell id="U_TY-0Dwg_rTrHO3cY47-64" value="Learn about this template" style="html=1;overflow=block;blockSpacing=1;whiteSpace=wrap;fontSize=20;fontColor=#666666;fontStyle=1;spacingLeft=8.4;spacingRight=8.4;spacingTop=2.4;spacing=3.6;strokeOpacity=0;fillOpacity=0;fillColor=#ffffff;strokeWidth=1.5;lucidId=SY2p4FD~U8lN;" vertex="1" parent="WIyWlLk6GJQsqaUBKTNV-1">
          <mxGeometry x="-1007" y="-2658" width="381" height="47" as="geometry" />
        </mxCell>
        <mxCell id="U_TY-0Dwg_rTrHO3cY47-65" value="&lt;div style=&quot;display: flex; justify-content: center; text-align: center; align-items: baseline; font-size: 0; line-height: 1.25;margin-left: 8.4px;margin-right: 8.4px;margin-top: 2.4px;margin-top: -2px;&quot;&gt;&lt;span&gt;&lt;span style=&quot;font-size:16.7px;color:#666666;font-weight: bold;&quot;&gt;UML Class Diagram Tutorials&#xa;&lt;/span&gt;&lt;/span&gt;&lt;/div&gt;&lt;div style=&quot;display: flex; justify-content: center; text-align: center; align-items: baseline; font-size: 0; line-height: 1.25;margin-top: -2px;&quot;&gt;&lt;span&gt;&lt;span style=&quot;font-size:13px;color:#666666;&quot;&gt;&lt;span style=&quot;font-size:13.3px;color:#666666;font-style: italic;&quot;&gt;(Hold Shift + ⌘ or Ctrl, then click)&lt;/span&gt;&lt;/span&gt;&lt;/span&gt;&lt;/div&gt;" style="html=1;overflow=block;blockSpacing=1;whiteSpace=wrap;fontSize=13;spacing=3.6;strokeOpacity=0;fillOpacity=0;fillColor=#ffffff;strokeWidth=0.8;lucidId=SY2pRuy3iUNh;" vertex="1" parent="WIyWlLk6GJQsqaUBKTNV-1">
          <mxGeometry x="-1007" y="-2191" width="381" height="54" as="geometry" />
        </mxCell>
        <UserObject label="Read about UML class diagrams" link="https://www.lucidchart.com/pages/uml-class-diagram" id="U_TY-0Dwg_rTrHO3cY47-66">
          <mxCell style="html=1;overflow=block;blockSpacing=1;whiteSpace=wrap;rounded=1;arcSize=25;fontSize=16.7;fontColor=#ffffff;spacingLeft=8.4;spacingRight=8.4;spacingTop=2.4;spacing=3.6;strokeOpacity=0;fillOpacity=100;shadow=1;fillColor=#77818c;strokeWidth=1.5;lucidId=SY2pU0_veld~;" vertex="1" parent="WIyWlLk6GJQsqaUBKTNV-1">
            <mxGeometry x="-979" y="-2059" width="324" height="58" as="geometry" />
          </mxCell>
        </UserObject>
        <UserObject label="Watch a UML class diagram tutorial" link="https://www.youtube.com/watch?v=UI6lqHOVHic" id="U_TY-0Dwg_rTrHO3cY47-67">
          <mxCell style="html=1;overflow=block;blockSpacing=1;whiteSpace=wrap;rounded=1;arcSize=25;fontSize=16.7;fontColor=#ffffff;spacingLeft=8.4;spacingRight=8.4;spacingTop=2.4;spacing=3.6;strokeOpacity=0;fillOpacity=100;shadow=1;fillColor=#77818c;strokeWidth=1.5;lucidId=SY2p5YtSYIp6;" vertex="1" parent="WIyWlLk6GJQsqaUBKTNV-1">
            <mxGeometry x="-979" y="-2135" width="324" height="58" as="geometry" />
          </mxCell>
        </UserObject>
        <UserObject label="Watch Lucidchart basic tutorials" link="https://www.youtube.com/playlist?list=PLUoebdZqEHTxx3fS_jyD56QMd4trXZE3D" id="U_TY-0Dwg_rTrHO3cY47-68">
          <mxCell style="html=1;overflow=block;blockSpacing=1;whiteSpace=wrap;rounded=1;arcSize=25;fontSize=16.7;fontColor=#ffffff;spacingLeft=8.4;spacingRight=8.4;spacingTop=2.4;spacing=3.6;strokeOpacity=0;fillOpacity=100;shadow=1;fillColor=#77818c;strokeWidth=1.5;lucidId=SY2pt628xp.h;" vertex="1" parent="WIyWlLk6GJQsqaUBKTNV-1">
            <mxGeometry x="-979" y="-1982" width="324" height="58" as="geometry" />
          </mxCell>
        </UserObject>
        <mxCell id="U_TY-0Dwg_rTrHO3cY47-69" value="&lt;div style=&quot;display: flex; justify-content: flex-start; text-align: left; align-items: baseline; font-size: 0; line-height: 1.25;margin-left: 8.4px;margin-right: 8.4px;margin-top: 2.4px;margin-top: -2px;&quot;&gt;&lt;span&gt;&lt;span style=&quot;font-size:16.7px;color:#666666;font-style: italic;&quot;&gt;UML class diagrams map out the structure of a particular system by modeling its classes, attributes, operations, and relationships between objects. &#xa;&lt;/span&gt;&lt;/span&gt;&lt;/div&gt;&lt;div style=&quot;display: flex; justify-content: center; text-align: center; align-items: baseline; font-size: 0; line-height: 1.25;margin-top: -2px;&quot;&gt;&lt;span&gt;&lt;span style=&quot;font-size:16.7px;color:#666666;font-style: italic;&quot;&gt;&#xa;&lt;/span&gt;&lt;/span&gt;&lt;/div&gt;&lt;div style=&quot;display: flex; justify-content: center; text-align: center; align-items: baseline; font-size: 0; line-height: 1.25;margin-top: -2px;&quot;&gt;&lt;span&gt;&lt;span style=&quot;font-size:16.7px;color:#666666;font-style: italic;&quot;&gt;To customize this template:&#xa;&lt;/span&gt;&lt;/span&gt;&lt;/div&gt;&lt;ul style=&quot;margin: 0px; padding-left: 10px;list-style-position: inside; list-style-type:disc&quot;&gt;&lt;li style=&quot;text-align:left;color:#666666;font-size:16.7px;&quot;&gt;&lt;span style=&quot;margin-left: 3.7px;margin-right: 8.4px;margin-top: 2.4px;margin-top: -2px;&quot;&gt;&lt;span style=&quot;font-size:16.7px;color:#666666;font-style: italic;&quot;&gt;Click on any shape and type the information you would like to include.&lt;/span&gt;&lt;/span&gt;&lt;/li&gt;&lt;li style=&quot;text-align:left;color:#666666;font-size:16.7px;&quot;&gt;&lt;span style=&quot;margin-left: 3.7px;margin-right: 8.4px;margin-top: 2.4px;margin-top: -2px;&quot;&gt;&lt;span style=&quot;font-size:16.7px;color:#666666;font-style: italic;&quot;&gt;Add and arrange class shapes as needed.&lt;/span&gt;&lt;/span&gt;&lt;/li&gt;&lt;li style=&quot;text-align:left;color:#666666;font-size:16.7px;&quot;&gt;&lt;span style=&quot;margin-left: 3.7px;margin-right: 8.4px;margin-top: 2.4px;margin-top: -2px;&quot;&gt;&lt;span style=&quot;font-size:16.7px;color:#666666;font-style: italic;&quot;&gt;Update cardinality.&lt;/span&gt;&lt;/span&gt;&lt;/li&gt;&lt;li style=&quot;text-align:left;color:#666666;font-size:16.7px;&quot;&gt;&lt;span style=&quot;margin-left: 3.7px;margin-right: 8.4px;margin-top: 2.4px;margin-top: -2px;&quot;&gt;&lt;span style=&quot;font-size:16.7px;color:#666666;font-style: italic;&quot;&gt;Click on a line and navigate to the properties bar to adjust the endpoints.&lt;/span&gt;&lt;/span&gt;&lt;/li&gt;&lt;li style=&quot;text-align:left;color:#666666;font-size:16.7px;&quot;&gt;&lt;span style=&quot;margin-left: 3.7px;margin-right: 8.4px;margin-top: 2.4px;margin-top: -2px;&quot;&gt;&lt;span style=&quot;font-size:16.7px;color:#666666;font-style: italic;&quot;&gt;Click on a line and hover over the gear icon to add multiplicities.&lt;/span&gt;&lt;/span&gt;&lt;/li&gt;&lt;li style=&quot;text-align:left;color:#666666;font-size:16.7px;&quot;&gt;&lt;span style=&quot;margin-left: 3.7px;margin-right: 8.4px;margin-top: 2.4px;margin-top: -2px;&quot;&gt;&lt;span style=&quot;font-size:16.7px;color:#666666;font-style: italic;&quot;&gt;Add additional lines by hovering over a shape and clicking the red dot&lt;/span&gt;&lt;/span&gt;&lt;/li&gt;&lt;/ul&gt;" style="html=1;overflow=block;blockSpacing=1;whiteSpace=wrap;fontSize=13;spacing=0;verticalAlign=top;strokeOpacity=100;rounded=1;absoluteArcSize=1;arcSize=7.5;strokeWidth=1.5;fillColor=none;strokeColor=none;lucidId=SY2pniJw6Qz9;" vertex="1" parent="WIyWlLk6GJQsqaUBKTNV-1">
          <mxGeometry x="-979" y="-2611" width="324" height="420" as="geometry" />
        </mxCell>
        <mxCell id="U_TY-0Dwg_rTrHO3cY47-70" value="State Pattern Exercise" style="html=1;overflow=block;blockSpacing=1;whiteSpace=wrap;fontSize=19.7;fontColor=#a9afb8;fontStyle=1;align=center;spacingLeft=7;spacingRight=7;spacingTop=2;spacing=3;strokeOpacity=0;fillOpacity=0;rounded=1;absoluteArcSize=1;arcSize=12;fillColor=#ffffff;strokeWidth=1.5;lucidId=SY2psujnoQzz;" vertex="1" parent="WIyWlLk6GJQsqaUBKTNV-1">
          <mxGeometry x="-2047" y="-2621" width="640" height="31" as="geometry" />
        </mxCell>
        <UserObject label="%creatorName%  |  %date{mmmm d, yyyy}%" placeholders="1" id="U_TY-0Dwg_rTrHO3cY47-71">
          <mxCell style="html=1;overflow=block;blockSpacing=1;whiteSpace=wrap;fontSize=11.5;fontColor=#a9afb8;align=center;spacingLeft=7;spacingRight=7;spacingTop=2;spacing=3;strokeOpacity=0;fillOpacity=0;rounded=1;absoluteArcSize=1;arcSize=12;fillColor=#ffffff;strokeWidth=1.5;lucidId=SY2pOwbc8Taz;" vertex="1" parent="WIyWlLk6GJQsqaUBKTNV-1">
            <mxGeometry x="-2047" y="-2590" width="640" height="14" as="geometry" />
          </mxCell>
        </UserObject>
        <mxCell id="U_TY-0Dwg_rTrHO3cY47-72" value="DirectionService / Context" style="html=1;overflow=block;blockSpacing=1;swimlane;childLayout=stackLayout;horizontal=1;horizontalStack=0;resizeParent=1;resizeParentMax=0;resizeLast=0;collapsible=0;fontStyle=0;marginBottom=0;swimlaneFillColor=#ffffff;startSize=25;whiteSpace=wrap;fontSize=16.7;fontColor=#3a414a;align=left;spacing=0;strokeColor=#3a414a;strokeOpacity=100;rounded=1;absoluteArcSize=1;arcSize=9;strokeWidth=0.8;" vertex="1" parent="WIyWlLk6GJQsqaUBKTNV-1">
          <mxGeometry x="-2400" y="-2551" width="270" height="227.25" as="geometry" />
        </mxCell>
        <mxCell id="U_TY-0Dwg_rTrHO3cY47-73" value="- travelMode : TravelMode" style="part=1;html=1;resizeHeight=0;strokeColor=none;fillColor=none;align=left;verticalAlign=middle;spacingLeft=4;spacingRight=4;overflow=hidden;rotatable=0;points=[[0,0.5],[1,0.5]];portConstraint=eastwest;swimlaneFillColor=#ffffff;strokeOpacity=100;whiteSpace=wrap;fontSize=16.7;fontColor=#3a414a;" vertex="1" parent="U_TY-0Dwg_rTrHO3cY47-72">
          <mxGeometry y="25" width="270" height="92" as="geometry" />
        </mxCell>
        <mxCell id="U_TY-0Dwg_rTrHO3cY47-74" value="" style="line;strokeWidth=1;fillColor=none;align=left;verticalAlign=middle;spacingTop=-1;spacingLeft=3;spacingRight=3;rotatable=0;labelPosition=right;points=[];portConstraint=eastwest;" vertex="1" parent="U_TY-0Dwg_rTrHO3cY47-72">
          <mxGeometry y="117" width="270" height="8" as="geometry" />
        </mxCell>
        <mxCell id="U_TY-0Dwg_rTrHO3cY47-75" value="( request())&#xa;+ getEta() : Object&#xa;+ getDirection() : Object&#xa;+ getTravelMode() : TravelMode&#xa;+ setTravelMode()" style="part=1;html=1;resizeHeight=0;strokeColor=none;fillColor=none;align=left;verticalAlign=middle;spacingLeft=4;spacingRight=4;overflow=hidden;rotatable=0;points=[[0,0.5],[1,0.5]];portConstraint=eastwest;swimlaneFillColor=#ffffff;strokeOpacity=100;whiteSpace=wrap;fontSize=16.7;fontColor=#3a414a;" vertex="1" parent="U_TY-0Dwg_rTrHO3cY47-72">
          <mxGeometry y="125" width="270" height="102.25" as="geometry" />
        </mxCell>
        <mxCell id="U_TY-0Dwg_rTrHO3cY47-76" value="Calculate (interface) /  State" style="html=1;overflow=block;blockSpacing=1;swimlane;childLayout=stackLayout;horizontal=1;horizontalStack=0;resizeParent=1;resizeParentMax=0;resizeLast=0;collapsible=0;fontStyle=0;marginBottom=0;swimlaneFillColor=#ffffff;startSize=25;whiteSpace=wrap;fontSize=16.7;fontColor=#3a414a;align=left;spacing=0;strokeColor=#3a414a;strokeOpacity=100;rounded=1;absoluteArcSize=1;arcSize=9;strokeWidth=0.8;" vertex="1" parent="WIyWlLk6GJQsqaUBKTNV-1">
          <mxGeometry x="-1695" y="-2537" width="270" height="187.25" as="geometry" />
        </mxCell>
        <mxCell id="U_TY-0Dwg_rTrHO3cY47-77" value="" style="part=1;html=1;resizeHeight=0;strokeColor=none;fillColor=none;align=left;verticalAlign=middle;spacingLeft=4;spacingRight=4;overflow=hidden;rotatable=0;points=[[0,0.5],[1,0.5]];portConstraint=eastwest;swimlaneFillColor=#ffffff;strokeOpacity=100;whiteSpace=wrap;fontSize=13;" vertex="1" parent="U_TY-0Dwg_rTrHO3cY47-76">
          <mxGeometry y="25" width="270" height="72" as="geometry" />
        </mxCell>
        <mxCell id="U_TY-0Dwg_rTrHO3cY47-78" value="" style="line;strokeWidth=1;fillColor=none;align=left;verticalAlign=middle;spacingTop=-1;spacingLeft=3;spacingRight=3;rotatable=0;labelPosition=right;points=[];portConstraint=eastwest;" vertex="1" parent="U_TY-0Dwg_rTrHO3cY47-76">
          <mxGeometry y="97" width="270" height="8" as="geometry" />
        </mxCell>
        <mxCell id="U_TY-0Dwg_rTrHO3cY47-79" value="(handle())&#xa;+ getEta()&#xa;+ getDirection()" style="part=1;html=1;resizeHeight=0;strokeColor=none;fillColor=none;align=left;verticalAlign=middle;spacingLeft=4;spacingRight=4;overflow=hidden;rotatable=0;points=[[0,0.5],[1,0.5]];portConstraint=eastwest;swimlaneFillColor=#ffffff;strokeOpacity=100;whiteSpace=wrap;fontSize=16.7;fontColor=#3a414a;" vertex="1" parent="U_TY-0Dwg_rTrHO3cY47-76">
          <mxGeometry y="105" width="270" height="82.25" as="geometry" />
        </mxCell>
        <mxCell id="U_TY-0Dwg_rTrHO3cY47-80" value="Walking Class / ConcreteStateD" style="html=1;overflow=block;blockSpacing=1;swimlane;childLayout=stackLayout;horizontal=1;horizontalStack=0;resizeParent=1;resizeParentMax=0;resizeLast=0;collapsible=0;fontStyle=0;marginBottom=0;swimlaneFillColor=#ffffff;startSize=25;whiteSpace=wrap;fontSize=16.7;fontColor=#3a414a;align=left;spacing=0;strokeColor=#3a414a;strokeOpacity=100;rounded=1;absoluteArcSize=1;arcSize=9;strokeWidth=0.8;" vertex="1" parent="WIyWlLk6GJQsqaUBKTNV-1">
          <mxGeometry x="-1485" y="-2056" width="285" height="202" as="geometry" />
        </mxCell>
        <mxCell id="U_TY-0Dwg_rTrHO3cY47-81" value="- etaMinutes :  int&#xa;- remainingDistance : double " style="part=1;html=1;resizeHeight=0;strokeColor=none;fillColor=none;align=left;verticalAlign=middle;spacingLeft=4;spacingRight=4;overflow=hidden;rotatable=0;points=[[0,0.5],[1,0.5]];portConstraint=eastwest;swimlaneFillColor=#ffffff;strokeOpacity=100;whiteSpace=wrap;fontSize=16.7;fontColor=#3a414a;" vertex="1" parent="U_TY-0Dwg_rTrHO3cY47-80">
          <mxGeometry y="25" width="285" height="96" as="geometry" />
        </mxCell>
        <mxCell id="U_TY-0Dwg_rTrHO3cY47-82" value="" style="line;strokeWidth=1;fillColor=none;align=left;verticalAlign=middle;spacingTop=-1;spacingLeft=3;spacingRight=3;rotatable=0;labelPosition=right;points=[];portConstraint=eastwest;" vertex="1" parent="U_TY-0Dwg_rTrHO3cY47-80">
          <mxGeometry y="121" width="285" height="8" as="geometry" />
        </mxCell>
        <mxCell id="U_TY-0Dwg_rTrHO3cY47-83" value="(handle())&#xa;- calculateEtaValue() : int&#xa;- calculateDirectionValue() : double&#xa;+ getEta() : Object&#xa;+ getDirection() : Object" style="part=1;html=1;resizeHeight=0;strokeColor=none;fillColor=none;align=left;verticalAlign=middle;spacingLeft=4;spacingRight=4;overflow=hidden;rotatable=0;points=[[0,0.5],[1,0.5]];portConstraint=eastwest;swimlaneFillColor=#ffffff;strokeOpacity=100;whiteSpace=wrap;fontSize=16.7;fontColor=#3a414a;" vertex="1" parent="U_TY-0Dwg_rTrHO3cY47-80">
          <mxGeometry y="129" width="285" height="73" as="geometry" />
        </mxCell>
        <mxCell id="U_TY-0Dwg_rTrHO3cY47-84" value="Driving class /  ConcreteStateA" style="html=1;overflow=block;blockSpacing=1;swimlane;childLayout=stackLayout;horizontal=1;horizontalStack=0;resizeParent=1;resizeParentMax=0;resizeLast=0;collapsible=0;fontStyle=0;marginBottom=0;swimlaneFillColor=#ffffff;startSize=25;whiteSpace=wrap;fontSize=16.7;fontColor=#3a414a;align=left;spacing=0;strokeColor=#3a414a;strokeOpacity=100;rounded=1;absoluteArcSize=1;arcSize=9;strokeWidth=0.8;" vertex="1" parent="WIyWlLk6GJQsqaUBKTNV-1">
          <mxGeometry x="-315" y="-885" width="300" height="183" as="geometry" />
        </mxCell>
        <mxCell id="U_TY-0Dwg_rTrHO3cY47-85" value="- etaMinutes :  int&#xa;- remainingDistance : double " style="part=1;html=1;resizeHeight=0;strokeColor=none;fillColor=none;align=left;verticalAlign=middle;spacingLeft=4;spacingRight=4;overflow=hidden;rotatable=0;points=[[0,0.5],[1,0.5]];portConstraint=eastwest;swimlaneFillColor=#ffffff;strokeOpacity=100;whiteSpace=wrap;fontSize=16.7;fontColor=#3a414a;" vertex="1" parent="U_TY-0Dwg_rTrHO3cY47-84">
          <mxGeometry y="25" width="300" height="86" as="geometry" />
        </mxCell>
        <mxCell id="U_TY-0Dwg_rTrHO3cY47-86" value="" style="line;strokeWidth=1;fillColor=none;align=left;verticalAlign=middle;spacingTop=-1;spacingLeft=3;spacingRight=3;rotatable=0;labelPosition=right;points=[];portConstraint=eastwest;" vertex="1" parent="U_TY-0Dwg_rTrHO3cY47-84">
          <mxGeometry y="111" width="300" height="8" as="geometry" />
        </mxCell>
        <mxCell id="U_TY-0Dwg_rTrHO3cY47-87" value="(handle())&#xa;- calculateEtaValue() : int&#xa;- calculateDirectionValue() : double&#xa;+ getEta() : Object&#xa;+ getDirection() : Object" style="part=1;html=1;resizeHeight=0;strokeColor=none;fillColor=none;align=left;verticalAlign=middle;spacingLeft=4;spacingRight=4;overflow=hidden;rotatable=0;points=[[0,0.5],[1,0.5]];portConstraint=eastwest;swimlaneFillColor=#ffffff;strokeOpacity=100;whiteSpace=wrap;fontSize=16.7;fontColor=#3a414a;" vertex="1" parent="U_TY-0Dwg_rTrHO3cY47-84">
          <mxGeometry y="119" width="300" height="64" as="geometry" />
        </mxCell>
        <mxCell id="U_TY-0Dwg_rTrHO3cY47-88" value="" style="html=1;jettySize=18;whiteSpace=wrap;overflow=block;blockSpacing=1;fontSize=13;strokeColor=#3a414a;strokeOpacity=100;strokeWidth=3.8;rounded=1;arcSize=12;edgeStyle=orthogonalEdgeStyle;startArrow=none;endArrow=none;exitX=0.5;exitY=-0.002;exitPerimeter=0;entryX=0.5;entryY=-0.002;entryPerimeter=0;lucidId=SY2pQHhQ.OxP;" edge="1" parent="WIyWlLk6GJQsqaUBKTNV-1" target="U_TY-0Dwg_rTrHO3cY47-80">
          <mxGeometry width="100" height="100" relative="1" as="geometry">
            <Array as="points">
              <mxPoint x="-1130" y="-2300" />
              <mxPoint x="-785" y="-2300" />
            </Array>
            <mxPoint x="-1970" y="-2036.366" as="sourcePoint" />
          </mxGeometry>
        </mxCell>
        <mxCell id="U_TY-0Dwg_rTrHO3cY47-89" value="" style="html=1;jettySize=18;whiteSpace=wrap;overflow=block;blockSpacing=1;fontSize=13;strokeColor=#3a414a;strokeOpacity=100;strokeWidth=3.8;rounded=1;arcSize=12;edgeStyle=orthogonalEdgeStyle;endArrow=none;exitX=0.507;exitY=1.002;exitPerimeter=0;lucidId=SY2pqAWi54bZ;" edge="1" parent="WIyWlLk6GJQsqaUBKTNV-1" source="U_TY-0Dwg_rTrHO3cY47-76">
          <mxGeometry width="100" height="100" relative="1" as="geometry">
            <Array as="points" />
            <mxPoint x="-1990" y="-2320" as="targetPoint" />
          </mxGeometry>
        </mxCell>
        <mxCell id="U_TY-0Dwg_rTrHO3cY47-90" value="To implement the state pattern, we use the polymophism feature of OOP" style="html=1;overflow=block;blockSpacing=1;whiteSpace=wrap;fontSize=16.7;fontColor=#3a414a;spacing=3.8;strokeOpacity=0;fillOpacity=0;rounded=1;absoluteArcSize=1;arcSize=9;fillColor=#ffffff;strokeWidth=3.8;lucidId=SY2p7HI0BRh~;" vertex="1" parent="WIyWlLk6GJQsqaUBKTNV-1">
          <mxGeometry x="-1335" y="-2574" width="180" height="88" as="geometry" />
        </mxCell>
        <mxCell id="U_TY-0Dwg_rTrHO3cY47-91" value="Bicycling class /  ConcreteStateB" style="html=1;overflow=block;blockSpacing=1;swimlane;childLayout=stackLayout;horizontal=1;horizontalStack=0;resizeParent=1;resizeParentMax=0;resizeLast=0;collapsible=0;fontStyle=0;marginBottom=0;swimlaneFillColor=#ffffff;startSize=25;whiteSpace=wrap;fontSize=16.7;fontColor=#3a414a;align=left;spacing=0;strokeColor=#3a414a;strokeOpacity=100;rounded=1;absoluteArcSize=1;arcSize=9;strokeWidth=0.8;" vertex="1" parent="WIyWlLk6GJQsqaUBKTNV-1">
          <mxGeometry x="-2307" y="-2056" width="300" height="183" as="geometry" />
        </mxCell>
        <mxCell id="U_TY-0Dwg_rTrHO3cY47-92" value="- etaMinutes :  int&#xa;- remainingDistance : double " style="part=1;html=1;resizeHeight=0;strokeColor=none;fillColor=none;align=left;verticalAlign=middle;spacingLeft=4;spacingRight=4;overflow=hidden;rotatable=0;points=[[0,0.5],[1,0.5]];portConstraint=eastwest;swimlaneFillColor=#ffffff;strokeOpacity=100;whiteSpace=wrap;fontSize=16.7;fontColor=#3a414a;" vertex="1" parent="U_TY-0Dwg_rTrHO3cY47-91">
          <mxGeometry y="25" width="300" height="86" as="geometry" />
        </mxCell>
        <mxCell id="U_TY-0Dwg_rTrHO3cY47-93" value="" style="line;strokeWidth=1;fillColor=none;align=left;verticalAlign=middle;spacingTop=-1;spacingLeft=3;spacingRight=3;rotatable=0;labelPosition=right;points=[];portConstraint=eastwest;" vertex="1" parent="U_TY-0Dwg_rTrHO3cY47-91">
          <mxGeometry y="111" width="300" height="8" as="geometry" />
        </mxCell>
        <mxCell id="U_TY-0Dwg_rTrHO3cY47-94" value="(handle())&#xa;- calculateEtaValue() : int&#xa;- calculateDirectionValue() : double&#xa;+ getEta() : Object&#xa;+ getDirection() : Object" style="part=1;html=1;resizeHeight=0;strokeColor=none;fillColor=none;align=left;verticalAlign=middle;spacingLeft=4;spacingRight=4;overflow=hidden;rotatable=0;points=[[0,0.5],[1,0.5]];portConstraint=eastwest;swimlaneFillColor=#ffffff;strokeOpacity=100;whiteSpace=wrap;fontSize=16.7;fontColor=#3a414a;" vertex="1" parent="U_TY-0Dwg_rTrHO3cY47-91">
          <mxGeometry y="119" width="300" height="64" as="geometry" />
        </mxCell>
        <mxCell id="U_TY-0Dwg_rTrHO3cY47-95" value="Transit class /  ConcreteStateC" style="html=1;overflow=block;blockSpacing=1;swimlane;childLayout=stackLayout;horizontal=1;horizontalStack=0;resizeParent=1;resizeParentMax=0;resizeLast=0;collapsible=0;fontStyle=0;marginBottom=0;swimlaneFillColor=#ffffff;startSize=25;whiteSpace=wrap;fontSize=16.7;fontColor=#3a414a;align=left;spacing=0;strokeColor=#3a414a;strokeOpacity=100;rounded=1;absoluteArcSize=1;arcSize=9;strokeWidth=0.8;" vertex="1" parent="WIyWlLk6GJQsqaUBKTNV-1">
          <mxGeometry x="-1900" y="-2056" width="300" height="183" as="geometry" />
        </mxCell>
        <mxCell id="U_TY-0Dwg_rTrHO3cY47-96" value="- etaMinutes :  int&#xa;- remainingDistance : double " style="part=1;html=1;resizeHeight=0;strokeColor=none;fillColor=none;align=left;verticalAlign=middle;spacingLeft=4;spacingRight=4;overflow=hidden;rotatable=0;points=[[0,0.5],[1,0.5]];portConstraint=eastwest;swimlaneFillColor=#ffffff;strokeOpacity=100;whiteSpace=wrap;fontSize=16.7;fontColor=#3a414a;" vertex="1" parent="U_TY-0Dwg_rTrHO3cY47-95">
          <mxGeometry y="25" width="300" height="86" as="geometry" />
        </mxCell>
        <mxCell id="U_TY-0Dwg_rTrHO3cY47-97" value="" style="line;strokeWidth=1;fillColor=none;align=left;verticalAlign=middle;spacingTop=-1;spacingLeft=3;spacingRight=3;rotatable=0;labelPosition=right;points=[];portConstraint=eastwest;" vertex="1" parent="U_TY-0Dwg_rTrHO3cY47-95">
          <mxGeometry y="111" width="300" height="8" as="geometry" />
        </mxCell>
        <mxCell id="U_TY-0Dwg_rTrHO3cY47-98" value="(handle())&#xa;- calculateEtaValue() : int&#xa;- calculateDirectionValue() : double&#xa;+ getEta() : Object&#xa;+ getDirection() : Object" style="part=1;html=1;resizeHeight=0;strokeColor=none;fillColor=none;align=left;verticalAlign=middle;spacingLeft=4;spacingRight=4;overflow=hidden;rotatable=0;points=[[0,0.5],[1,0.5]];portConstraint=eastwest;swimlaneFillColor=#ffffff;strokeOpacity=100;whiteSpace=wrap;fontSize=16.7;fontColor=#3a414a;" vertex="1" parent="U_TY-0Dwg_rTrHO3cY47-95">
          <mxGeometry y="119" width="300" height="64" as="geometry" />
        </mxCell>
        <mxCell id="U_TY-0Dwg_rTrHO3cY47-99" value="" style="html=1;jettySize=18;whiteSpace=wrap;overflow=block;blockSpacing=1;fontSize=13;strokeColor=#3a414a;strokeOpacity=100;strokeWidth=3.8;rounded=1;arcSize=12;edgeStyle=orthogonalEdgeStyle;startArrow=none;endArrow=none;exitX=0.5;exitY=-0.002;exitPerimeter=0;lucidId=ea4pz3I99HQH;" edge="1" parent="WIyWlLk6GJQsqaUBKTNV-1" source="U_TY-0Dwg_rTrHO3cY47-91">
          <mxGeometry width="100" height="100" relative="1" as="geometry">
            <Array as="points" />
            <mxPoint x="-2157" y="-2320" as="targetPoint" />
          </mxGeometry>
        </mxCell>
        <mxCell id="U_TY-0Dwg_rTrHO3cY47-100" value="" style="html=1;jettySize=18;whiteSpace=wrap;overflow=block;blockSpacing=1;fontSize=13;strokeColor=#3a414a;strokeOpacity=100;strokeWidth=3.8;rounded=1;arcSize=12;edgeStyle=orthogonalEdgeStyle;startArrow=none;endArrow=none;exitX=0.5;exitY=-0.002;exitPerimeter=0;lucidId=pa4pMNaIt2Fz;" edge="1" parent="WIyWlLk6GJQsqaUBKTNV-1" source="U_TY-0Dwg_rTrHO3cY47-95">
          <mxGeometry width="100" height="100" relative="1" as="geometry">
            <Array as="points" />
            <mxPoint x="-1750" y="-2320" as="targetPoint" />
          </mxGeometry>
        </mxCell>
        <mxCell id="U_TY-0Dwg_rTrHO3cY47-101" value="" style="html=1;jettySize=18;whiteSpace=wrap;overflow=block;blockSpacing=1;fontSize=13;strokeColor=#3a414a;strokeOpacity=100;strokeWidth=3.8;rounded=1;arcSize=12;edgeStyle=orthogonalEdgeStyle;startArrow=diamond;startFill=1;startSize=16;exitX=1.001;exitY=0.5;exitPerimeter=0;entryX=-0.001;entryY=0.534;entryPerimeter=0;lucidId=Wa4ps88qd8AT;" edge="1" parent="WIyWlLk6GJQsqaUBKTNV-1" source="U_TY-0Dwg_rTrHO3cY47-72" target="U_TY-0Dwg_rTrHO3cY47-76">
          <mxGeometry width="100" height="100" relative="1" as="geometry">
            <Array as="points" />
          </mxGeometry>
        </mxCell>
        <mxCell id="U_TY-0Dwg_rTrHO3cY47-124" value="State Pattern" style="html=1;overflow=block;blockSpacing=1;whiteSpace=wrap;fontSize=19.7;fontColor=#a9afb8;fontStyle=1;align=center;spacingLeft=7;spacingRight=7;spacingTop=2;spacing=3;strokeOpacity=0;fillOpacity=0;rounded=1;absoluteArcSize=1;arcSize=12;fillColor=#ffffff;strokeWidth=1.5;lucidId=sX0p97V16W0Q;" vertex="1" parent="WIyWlLk6GJQsqaUBKTNV-1">
          <mxGeometry x="880" y="-3410" width="640" height="1" as="geometry" />
        </mxCell>
        <UserObject label="%creatorName%  |  %date{mmmm d, yyyy}%" placeholders="1" id="U_TY-0Dwg_rTrHO3cY47-125">
          <mxCell style="html=1;overflow=block;blockSpacing=1;whiteSpace=wrap;fontSize=11.5;fontColor=#a9afb8;align=center;spacingLeft=7;spacingRight=7;spacingTop=2;spacing=3;strokeOpacity=0;fillOpacity=0;rounded=1;absoluteArcSize=1;arcSize=12;fillColor=#ffffff;strokeWidth=1.5;lucidId=sX0pR78Se-6M;" vertex="1" parent="WIyWlLk6GJQsqaUBKTNV-1">
            <mxGeometry x="880" y="-3379" width="640" as="geometry" />
          </mxCell>
        </UserObject>
        <mxCell id="U_TY-0Dwg_rTrHO3cY47-126" value="Canvas Class / Context" style="html=1;overflow=block;blockSpacing=1;swimlane;childLayout=stackLayout;horizontal=1;horizontalStack=0;resizeParent=1;resizeParentMax=0;resizeLast=0;collapsible=0;fontStyle=0;marginBottom=0;swimlaneFillColor=#ffffff;startSize=25;whiteSpace=wrap;fontSize=16.7;fontColor=#3a414a;align=left;spacing=0;strokeColor=#3a414a;strokeOpacity=100;rounded=1;absoluteArcSize=1;arcSize=9;strokeWidth=0.8;" vertex="1" parent="WIyWlLk6GJQsqaUBKTNV-1">
          <mxGeometry x="827" y="-3316" width="270" height="219.25" as="geometry" />
        </mxCell>
        <mxCell id="U_TY-0Dwg_rTrHO3cY47-127" value="- currentTool : ToolType" style="part=1;html=1;resizeHeight=0;strokeColor=none;fillColor=none;align=left;verticalAlign=middle;spacingLeft=4;spacingRight=4;overflow=hidden;rotatable=0;points=[[0,0.5],[1,0.5]];portConstraint=eastwest;swimlaneFillColor=#ffffff;strokeOpacity=100;whiteSpace=wrap;fontSize=16.7;fontColor=#3a414a;" vertex="1" parent="U_TY-0Dwg_rTrHO3cY47-126">
          <mxGeometry y="25" width="270" height="92" as="geometry" />
        </mxCell>
        <mxCell id="U_TY-0Dwg_rTrHO3cY47-128" value="" style="line;strokeWidth=1;fillColor=none;align=left;verticalAlign=middle;spacingTop=-1;spacingLeft=3;spacingRight=3;rotatable=0;labelPosition=right;points=[];portConstraint=eastwest;" vertex="1" parent="U_TY-0Dwg_rTrHO3cY47-126">
          <mxGeometry y="117" width="270" as="geometry" />
        </mxCell>
        <mxCell id="U_TY-0Dwg_rTrHO3cY47-129" value="( request())&#xa;+ mouseDown()&#xa;+ mouseUp()&#xa;+ getCurrentTool() : ToolType&#xa;+ setCurrentTool()" style="part=1;html=1;resizeHeight=0;strokeColor=none;fillColor=none;align=left;verticalAlign=middle;spacingLeft=4;spacingRight=4;overflow=hidden;rotatable=0;points=[[0,0.5],[1,0.5]];portConstraint=eastwest;swimlaneFillColor=#ffffff;strokeOpacity=100;whiteSpace=wrap;fontSize=16.7;fontColor=#3a414a;" vertex="1" parent="U_TY-0Dwg_rTrHO3cY47-126">
          <mxGeometry y="117" width="270" height="102.25" as="geometry" />
        </mxCell>
        <mxCell id="U_TY-0Dwg_rTrHO3cY47-130" value="Tool (interface class) /  State" style="html=1;overflow=block;blockSpacing=1;swimlane;childLayout=stackLayout;horizontal=1;horizontalStack=0;resizeParent=1;resizeParentMax=0;resizeLast=0;collapsible=0;fontStyle=0;marginBottom=0;swimlaneFillColor=#ffffff;startSize=25;whiteSpace=wrap;fontSize=16.7;fontColor=#3a414a;align=left;spacing=0;strokeColor=#3a414a;strokeOpacity=100;rounded=1;absoluteArcSize=1;arcSize=9;strokeWidth=0.8;" vertex="1" parent="WIyWlLk6GJQsqaUBKTNV-1">
          <mxGeometry x="1232" y="-3326" width="270" height="160.25" as="geometry" />
        </mxCell>
        <mxCell id="U_TY-0Dwg_rTrHO3cY47-131" value="" style="part=1;html=1;resizeHeight=0;strokeColor=none;fillColor=none;align=left;verticalAlign=middle;spacingLeft=4;spacingRight=4;overflow=hidden;rotatable=0;points=[[0,0.5],[1,0.5]];portConstraint=eastwest;swimlaneFillColor=#ffffff;strokeOpacity=100;whiteSpace=wrap;fontSize=13;" vertex="1" parent="U_TY-0Dwg_rTrHO3cY47-130">
          <mxGeometry y="25" width="270" height="62" as="geometry" />
        </mxCell>
        <mxCell id="U_TY-0Dwg_rTrHO3cY47-132" value="" style="line;strokeWidth=1;fillColor=none;align=left;verticalAlign=middle;spacingTop=-1;spacingLeft=3;spacingRight=3;rotatable=0;labelPosition=right;points=[];portConstraint=eastwest;" vertex="1" parent="U_TY-0Dwg_rTrHO3cY47-130">
          <mxGeometry y="87" width="270" as="geometry" />
        </mxCell>
        <mxCell id="U_TY-0Dwg_rTrHO3cY47-133" value="(handle())&#xa;+ mouseDown()&#xa;+mouseUp()" style="part=1;html=1;resizeHeight=0;strokeColor=none;fillColor=none;align=left;verticalAlign=middle;spacingLeft=4;spacingRight=4;overflow=hidden;rotatable=0;points=[[0,0.5],[1,0.5]];portConstraint=eastwest;swimlaneFillColor=#ffffff;strokeOpacity=100;whiteSpace=wrap;fontSize=16.7;fontColor=#3a414a;" vertex="1" parent="U_TY-0Dwg_rTrHO3cY47-130">
          <mxGeometry y="87" width="270" height="73.25" as="geometry" />
        </mxCell>
        <mxCell id="U_TY-0Dwg_rTrHO3cY47-134" value="Brush Class / ConcreteStateB" style="html=1;overflow=block;blockSpacing=1;swimlane;childLayout=stackLayout;horizontal=1;horizontalStack=0;resizeParent=1;resizeParentMax=0;resizeLast=0;collapsible=0;fontStyle=0;marginBottom=0;swimlaneFillColor=#ffffff;startSize=25;whiteSpace=wrap;fontSize=16.7;fontColor=#3a414a;align=left;spacing=0;strokeColor=#3a414a;strokeOpacity=100;rounded=1;absoluteArcSize=1;arcSize=9;strokeWidth=0.8;" vertex="1" parent="WIyWlLk6GJQsqaUBKTNV-1">
          <mxGeometry x="1427" y="-3027" width="270" height="78" as="geometry" />
        </mxCell>
        <mxCell id="U_TY-0Dwg_rTrHO3cY47-135" value="" style="part=1;html=1;resizeHeight=0;strokeColor=none;fillColor=none;align=left;verticalAlign=middle;spacingLeft=4;spacingRight=4;overflow=hidden;rotatable=0;points=[[0,0.5],[1,0.5]];portConstraint=eastwest;swimlaneFillColor=#ffffff;strokeOpacity=100;whiteSpace=wrap;fontSize=13;" vertex="1" parent="U_TY-0Dwg_rTrHO3cY47-134">
          <mxGeometry y="25" width="270" height="36" as="geometry" />
        </mxCell>
        <mxCell id="U_TY-0Dwg_rTrHO3cY47-136" value="" style="line;strokeWidth=1;fillColor=none;align=left;verticalAlign=middle;spacingTop=-1;spacingLeft=3;spacingRight=3;rotatable=0;labelPosition=right;points=[];portConstraint=eastwest;" vertex="1" parent="U_TY-0Dwg_rTrHO3cY47-134">
          <mxGeometry y="61" width="270" as="geometry" />
        </mxCell>
        <mxCell id="U_TY-0Dwg_rTrHO3cY47-137" value="(handle())&#xa;+ mouseDown()&#xa;+mouseUp()" style="part=1;html=1;resizeHeight=0;strokeColor=none;fillColor=none;align=left;verticalAlign=middle;spacingLeft=4;spacingRight=4;overflow=hidden;rotatable=0;points=[[0,0.5],[1,0.5]];portConstraint=eastwest;swimlaneFillColor=#ffffff;strokeOpacity=100;whiteSpace=wrap;fontSize=16.7;fontColor=#3a414a;" vertex="1" parent="U_TY-0Dwg_rTrHO3cY47-134">
          <mxGeometry y="61" width="270" height="17" as="geometry" />
        </mxCell>
        <mxCell id="U_TY-0Dwg_rTrHO3cY47-138" value="Selection class /  ConcreteStateA" style="html=1;overflow=block;blockSpacing=1;swimlane;childLayout=stackLayout;horizontal=1;horizontalStack=0;resizeParent=1;resizeParentMax=0;resizeLast=0;collapsible=0;fontStyle=0;marginBottom=0;swimlaneFillColor=#ffffff;startSize=25;whiteSpace=wrap;fontSize=16.7;fontColor=#3a414a;align=left;spacing=0;strokeColor=#3a414a;strokeOpacity=100;rounded=1;absoluteArcSize=1;arcSize=9;strokeWidth=0.8;" vertex="1" parent="WIyWlLk6GJQsqaUBKTNV-1">
          <mxGeometry x="1082" y="-3027" width="270" height="78" as="geometry" />
        </mxCell>
        <mxCell id="U_TY-0Dwg_rTrHO3cY47-139" value="" style="part=1;html=1;resizeHeight=0;strokeColor=none;fillColor=none;align=left;verticalAlign=middle;spacingLeft=4;spacingRight=4;overflow=hidden;rotatable=0;points=[[0,0.5],[1,0.5]];portConstraint=eastwest;swimlaneFillColor=#ffffff;strokeOpacity=100;whiteSpace=wrap;fontSize=13;" vertex="1" parent="U_TY-0Dwg_rTrHO3cY47-138">
          <mxGeometry y="25" width="270" height="36" as="geometry" />
        </mxCell>
        <mxCell id="U_TY-0Dwg_rTrHO3cY47-140" value="" style="line;strokeWidth=1;fillColor=none;align=left;verticalAlign=middle;spacingTop=-1;spacingLeft=3;spacingRight=3;rotatable=0;labelPosition=right;points=[];portConstraint=eastwest;" vertex="1" parent="U_TY-0Dwg_rTrHO3cY47-138">
          <mxGeometry y="61" width="270" as="geometry" />
        </mxCell>
        <mxCell id="U_TY-0Dwg_rTrHO3cY47-141" value="(handle())&#xa;+ mouseDown()&#xa;+mouseUp()" style="part=1;html=1;resizeHeight=0;strokeColor=none;fillColor=none;align=left;verticalAlign=middle;spacingLeft=4;spacingRight=4;overflow=hidden;rotatable=0;points=[[0,0.5],[1,0.5]];portConstraint=eastwest;swimlaneFillColor=#ffffff;strokeOpacity=100;whiteSpace=wrap;fontSize=16.7;fontColor=#3a414a;" vertex="1" parent="U_TY-0Dwg_rTrHO3cY47-138">
          <mxGeometry y="61" width="270" height="17" as="geometry" />
        </mxCell>
        <mxCell id="U_TY-0Dwg_rTrHO3cY47-142" value="" style="html=1;jettySize=18;whiteSpace=wrap;overflow=block;blockSpacing=1;fontSize=13;strokeColor=#3a414a;strokeOpacity=100;strokeWidth=3.8;rounded=1;arcSize=12;edgeStyle=orthogonalEdgeStyle;startArrow=none;endArrow=none;exitX=0.5;exitY=-0.003;exitPerimeter=0;entryX=0.5;entryY=-0.003;entryPerimeter=0;lucidId=dD1pzq4XvZ.y;" edge="1" parent="WIyWlLk6GJQsqaUBKTNV-1" source="U_TY-0Dwg_rTrHO3cY47-138" target="U_TY-0Dwg_rTrHO3cY47-134">
          <mxGeometry width="100" height="100" relative="1" as="geometry">
            <Array as="points">
              <mxPoint x="1217" y="-3109" />
              <mxPoint x="1562" y="-3109" />
            </Array>
          </mxGeometry>
        </mxCell>
        <mxCell id="U_TY-0Dwg_rTrHO3cY47-143" value="" style="html=1;jettySize=18;whiteSpace=wrap;overflow=block;blockSpacing=1;fontSize=13;strokeColor=#3a414a;strokeOpacity=100;strokeWidth=3.8;rounded=1;arcSize=12;edgeStyle=orthogonalEdgeStyle;endArrow=none;exitX=0.536;exitY=1.002;exitPerimeter=0;lucidId=QD1pjZaXCF8D;" edge="1" parent="WIyWlLk6GJQsqaUBKTNV-1" source="U_TY-0Dwg_rTrHO3cY47-130">
          <mxGeometry width="100" height="100" relative="1" as="geometry">
            <Array as="points" />
            <mxPoint x="1377" y="-3109" as="targetPoint" />
          </mxGeometry>
        </mxCell>
        <mxCell id="U_TY-0Dwg_rTrHO3cY47-144" value="To implement the state pattern, we use the polymophism feature of OOP" style="html=1;overflow=block;blockSpacing=1;whiteSpace=wrap;fontSize=16.7;fontColor=#3a414a;spacing=3.8;strokeOpacity=0;fillOpacity=0;rounded=1;absoluteArcSize=1;arcSize=9;fillColor=#ffffff;strokeWidth=3.8;lucidId=RH1p5E7Tl5A2;" vertex="1" parent="WIyWlLk6GJQsqaUBKTNV-1">
          <mxGeometry x="1592" y="-3363" width="180" height="58" as="geometry" />
        </mxCell>
      </root>
    </mxGraphModel>
  </diagram>
</mxfile>
